<?xml version="1.0" encoding="UTF-8"?>
<!DOCTYPE svg PUBLIC "-//W3C//DTD SVG 1.1//EN" "http://www.w3.org/Graphics/SVG/1.1/DTD/svg11.dtd">
<!-- Creator: CorelDRAW 2018 (64-Bit) -->
<svg xmlns="http://www.w3.org/2000/svg" xml:space="preserve" width="0.837161in" height="0.215181in" version="1.1" style="shape-rendering:geometricPrecision; text-rendering:geometricPrecision; image-rendering:optimizeQuality; fill-rule:evenodd; clip-rule:evenodd"
viewBox="0 0 1052.65 270.57"
 xmlns:xlink="http://www.w3.org/1999/xlink">
 <defs>
  <style type="text/css">
   <![CDATA[
    .fil0 {fill:#FFCC00}
    .fil1 {fill:#E6E6E6;fill-rule:nonzero}
   ]]>
  </style>
 </defs>
 <g id="Layer_x0020_1">
  <metadata id="CorelCorpID_0Corel-Layer"/>
  <path class="fil0" d="M-0 270.56l217.04 0c20.75,0 37.74,-16.99 37.74,-37.74l0 -82.21c0,-30.44 -24.3,-42 -37.74,-48.57l-38.71 -18.94 -18.22 33.23 24.9 12.01c24.92,12.01 31.34,16.34 31.34,44.1l0 26.81c0,23.52 -6.48,30.02 -30.02,30.02l-112.27 0 132.46 -229.27 -50.42 0 -156.09 270.56z"/>
  <path class="fil1" d="M318.33 239.37l6.7 0c13.32,0 23.75,-3.21 31.26,-9.68 7.51,-6.46 11.27,-15.36 11.27,-26.75 0,-11.39 -3.76,-20.32 -11.27,-26.84 -7.51,-6.52 -17.95,-9.77 -31.26,-9.77l-6.7 0 0 73.04zm-30.12 27.42l0 -127.69 33.91 0c23.84,0 42.53,5.68 56.03,17.07 13.5,11.39 20.26,26.99 20.26,46.77 0,11.84 -2.67,22.4 -8.02,31.56 -5.32,9.2 -13.17,16.74 -23.51,22.69 -5.89,3.4 -12.26,5.83 -19.18,7.34 -6.88,1.5 -15.42,2.25 -25.58,2.25l-33.91 0z"/>
  <path id="1" class="fil1" d="M435.26 227.1c0,6.76 1.44,12.2 4.36,16.32 2.92,4.15 6.64,6.22 11.15,6.22 4.54,0 8.24,-2.07 11.15,-6.25 2.92,-4.18 4.36,-9.59 4.36,-16.29 0,-6.64 -1.44,-12.05 -4.36,-16.26 -2.92,-4.18 -6.61,-6.28 -11.15,-6.28 -4.51,0 -8.24,2.07 -11.15,6.25 -2.92,4.18 -4.36,9.59 -4.36,16.29zm-28.14 -0.06c0,-12.59 4.12,-22.99 12.36,-31.17 8.27,-8.14 18.67,-12.23 31.29,-12.23 12.68,0 23.14,4.09 31.41,12.23 8.27,8.18 12.42,18.58 12.42,31.17 0,12.62 -4.15,23.05 -12.42,31.23 -8.27,8.2 -18.73,12.29 -31.41,12.29 -12.56,0 -22.96,-4.09 -31.23,-12.29 -8.27,-8.18 -12.42,-18.61 -12.42,-31.23z"/>
  <path id="2" class="fil1" d="M576.47 262.27c-4.87,2.77 -9.68,4.81 -14.4,6.13 -4.72,1.32 -9.59,1.99 -14.58,1.99 -13.22,0 -24.07,-3.97 -32.55,-11.91 -8.5,-7.91 -12.74,-17.95 -12.74,-30.12 0,-12.59 4.57,-23.21 13.71,-31.74 9.14,-8.53 20.59,-12.81 34.39,-12.81 5.05,0 10.01,0.57 14.82,1.71 4.81,1.14 9.47,2.86 13.92,5.17l-3.1 24.68c-4.33,-2.64 -8.5,-4.66 -12.53,-6.04 -4.02,-1.38 -7.75,-2.07 -11.21,-2.07 -6.22,0 -11.4,1.9 -15.51,5.68 -4.11,3.79 -6.16,8.48 -6.16,14.1 0,6.01 1.89,10.82 5.71,14.46 3.82,3.64 8.84,5.44 15.06,5.44 3.88,0 8.03,-0.84 12.42,-2.49 4.42,-1.69 9.53,-4.39 15.33,-8.15l-2.55 25.97z"/>
  <path id="3" class="fil1" d="M643.08 187.43l27.42 0 0 79.35 -25.46 3.79 0 -15.51c-4.3,5.29 -8.78,9.2 -13.5,11.72 -4.69,2.52 -9.83,3.79 -15.42,3.79 -8.39,0 -14.76,-2.41 -19.14,-7.21 -4.36,-4.84 -6.55,-11.88 -6.55,-21.16l0 -54.77 27.59 0 0 47.01c0,4.18 0.84,7.33 2.55,9.47 1.68,2.13 4.21,3.22 7.57,3.22 4.81,0 8.48,-1.62 11.06,-4.9 2.58,-3.25 3.88,-7.94 3.88,-14.03l0 -40.76z"/>
  <path id="4" class="fil1" d="M715.25 266.78l-27.59 0 0 -79.35 25.49 0 0 13.29c4.21,-5.2 8.72,-9.08 13.47,-11.63 4.75,-2.55 9.92,-3.82 15.48,-3.82 8.42,0 14.79,2.4 19.12,7.21 4.36,4.81 6.52,11.81 6.52,21.07l0 53.24 -27.42 0 0 -45.48c0,-4.18 -0.84,-7.3 -2.55,-9.41 -1.68,-2.14 -4.21,-3.19 -7.57,-3.19 -4.78,0 -8.48,1.62 -11.06,4.84 -2.58,3.25 -3.88,7.94 -3.88,14.1l0 39.14z"/>
  <path id="5" class="fil1" d="M782.42 157.85c0,-4.24 1.48,-7.82 4.42,-10.73 2.92,-2.95 6.49,-4.42 10.73,-4.42 4.3,0 7.88,1.44 10.79,4.36 2.92,2.92 4.36,6.49 4.36,10.79 0,4.24 -1.48,7.85 -4.42,10.85 -2.92,2.98 -6.49,4.48 -10.73,4.48 -4.11,0 -7.66,-1.5 -10.67,-4.54 -2.98,-3.03 -4.48,-6.61 -4.48,-10.79zm29.22 108.93l-27.95 0 0 -79.35 27.95 -3.79 0 83.14z"/>
  <polygon id="6" class="fil1" points="817.68,266.78 853.18,208.35 822.55,208.35 827.39,187.43 897.04,187.43 861.57,245.86 895.99,245.86 892.71,266.78 "/>
  <path id="7" class="fil1" d="M928.39 219.71l34.39 -1.05 0 -1.23c0,-4.18 -1.47,-7.6 -4.39,-10.28 -2.95,-2.67 -6.64,-4.02 -11.09,-4.02 -4.96,0 -9.14,1.44 -12.47,4.36 -3.34,2.92 -5.47,7 -6.43,12.23zm52.6 18.76l-3.06 24.38c-5.41,2.55 -10.73,4.48 -15.97,5.71 -5.23,1.23 -10.49,1.84 -15.84,1.84 -13.23,0 -23.87,-3.79 -31.98,-11.4 -8.08,-7.6 -12.14,-17.52 -12.14,-29.73 0,-12.74 4.42,-23.5 13.29,-32.28 8.87,-8.78 19.66,-13.17 32.34,-13.17 10.85,0 19.75,3.22 26.72,9.65 6.95,6.44 10.43,14.76 10.43,24.98 0,1.56 -0.12,4.09 -0.36,7.57l-0.09 0.51 -2.47 3.57 -54.07 1.5c0.42,5.35 2.64,9.71 6.67,13.04 4.05,3.34 9.17,4.99 15.3,4.99 4.36,0 9.17,-0.93 14.49,-2.83 5.29,-1.86 10.88,-4.66 16.74,-8.36z"/>
  <path id="8" class="fil1" d="M1024.87 266.78l-27.77 0 0 -79.35 25.85 0 0.51 13.92c3.16,-5.56 6.89,-9.59 11.12,-12.11 4.24,-2.52 9.53,-3.79 15.87,-3.79l2.19 0 0 29.58 -2.89 0 -3.09 0c-8.6,0 -14.4,0.99 -17.35,2.95 -2.98,1.99 -4.45,6.7 -4.45,14.22l0 34.6z"/>
 </g>
</svg>
